<?xml version="1.0" standalone="no"?><!DOCTYPE svg PUBLIC "-//W3C//DTD SVG 1.1//EN" "http://www.w3.org/Graphics/SVG/1.1/DTD/svg11.dtd"><svg t="1671430951720" class="icon" viewBox="0 0 1024 1024" version="1.1" xmlns="http://www.w3.org/2000/svg" p-id="4855" xmlns:xlink="http://www.w3.org/1999/xlink" width="200" height="200"><path d="M64 520a8 8 0 0 1-8-8C56 260.56 260.56 56 512 56a8 8 0 0 1 0 16C269.376 72 72 269.392 72 512a8 8 0 0 1-8 8zM560 72h-16a8 8 0 0 1 0-16h16a8 8 0 0 1 0 16zM512 968a8 8 0 0 1 0-16c242.624 0 440-197.392 440-440a8 8 0 0 1 16 0c0 251.44-204.56 456-456 456zM480 968h-16a8 8 0 0 1 0-16h16a8 8 0 0 1 0 16zM848 104h-64a8 8 0 0 1 0-16h64a8 8 0 0 1 0 16z" fill="#263238" p-id="4856"></path><path d="M816 136a8 8 0 0 1-8-8V64a8 8 0 0 1 16 0v64a8 8 0 0 1-8 8zM960 208h-64a8 8 0 0 1 0-16h64a8 8 0 0 1 0 16z" fill="#263238" p-id="4857"></path><path d="M928 240a8 8 0 0 1-8-8v-64a8 8 0 0 1 16 0v64a8 8 0 0 1-8 8z" fill="#263238" p-id="4858"></path><path d="M413.056 232.048C360.512 233.616 320 279.456 320 332.032V384a64 64 0 0 0-64 64c0 20.288 9.616 38.144 24.352 49.872A95.776 95.776 0 0 0 240 576c0 47.536 34.624 86.784 80 94.432V696a96 96 0 1 0 192 0v-368a96 96 0 0 0-98.944-95.952z" fill="#FFD740" p-id="4859"></path><path d="M416 800a104.128 104.128 0 0 1-104-104v-19.008a103.52 103.52 0 0 1-80-100.992 104.16 104.16 0 0 1 36-78.576A71.136 71.136 0 0 1 248 448a72.128 72.128 0 0 1 64-71.568v-44.4c0-57.888 45.232-106.336 100.816-107.984 28.544-0.64 55.264 9.568 75.616 29.328A103.184 103.184 0 0 1 520 328v368c0 57.344-46.656 104-104 104z m0.016-560a77.12 77.12 0 0 0-2.72 0.048c-47.024 1.392-85.296 42.656-85.296 91.984V384a8 8 0 0 1-8 8c-30.88 0-56 25.12-56 56 0 16.928 7.776 32.832 21.328 43.616a8.032 8.032 0 0 1-0.336 12.784A88.16 88.16 0 0 0 248 576a87.568 87.568 0 0 0 73.328 86.544 8 8 0 0 1 6.672 7.888V696c0 48.512 39.472 88 88 88s88-39.488 88-88v-368c0-24-9.488-46.416-26.72-63.152A87.344 87.344 0 0 0 416.016 240z m-2.96-7.952h0.16-0.16z" fill="#263238" p-id="4860"></path><path d="M336 680a104.128 104.128 0 0 1-104-104 8 8 0 0 1 16 0c0 48.512 39.472 88 88 88s88-39.488 88-88v-32a8 8 0 0 1 16 0v32c0 57.344-46.656 104-104 104z" fill="#263238" p-id="4861"></path><path d="M349.04 560.048a8 8 0 0 1-8-8v-38.832c0-28.352 13.776-55.136 36.848-71.632l5.76-4.096c8.384-5.984 13.392-15.728 13.392-26.048v-59.408a8 8 0 0 1 16 0v59.408c0 15.472-7.52 30.08-20.096 39.072l-5.76 4.096a72.192 72.192 0 0 0-30.144 58.592v38.832a8 8 0 0 1-8 8.016z" fill="#263238" p-id="4862"></path><path d="M610.944 232.048c52.544 1.568 93.056 47.408 93.056 99.984V384a64 64 0 0 1 64 64 63.584 63.584 0 0 1-24.352 49.872A95.776 95.776 0 0 1 784 576c0 47.536-34.624 86.784-80 94.432V696a96 96 0 1 1-192 0v-368a96 96 0 0 1 98.944-95.952z" fill="#FFD740" p-id="4863"></path><path d="M608 800a104.128 104.128 0 0 1-104-104v-368c0-28.352 11.216-54.88 31.568-74.624 20.352-19.76 47.2-29.952 75.616-29.328 55.584 1.664 100.816 50.096 100.816 107.984v44.4c35.952 4 64 34.56 64 71.568a71.136 71.136 0 0 1-20 49.424A104.16 104.16 0 0 1 792 576a103.552 103.552 0 0 1-80 100.992V696c0 57.344-46.656 104-104 104z m-0.016-560a87.344 87.344 0 0 0-61.264 24.848A87.328 87.328 0 0 0 520 328v368c0 48.512 39.472 88 88 88s88-39.488 88-88v-25.568a8 8 0 0 1 6.672-7.888A87.568 87.568 0 0 0 776 576c0-28.32-13.824-55.072-36.992-71.616a8.048 8.048 0 0 1-0.336-12.784A55.568 55.568 0 0 0 760 448c0-30.88-25.12-56-56-56a8 8 0 0 1-8-8v-51.968c0-49.328-38.272-90.592-85.296-91.984a77.12 77.12 0 0 0-2.72-0.048z" fill="#263238" p-id="4864"></path><path d="M688 680a104.128 104.128 0 0 1-104-104v-32a8 8 0 0 1 16 0v32c0 48.512 39.472 88 88 88s88-39.488 88-88a8 8 0 0 1 16 0c0 57.344-46.656 104-104 104z" fill="#263238" p-id="4865"></path><path d="M674.96 560.048a8 8 0 0 1-8-8v-38.832c0-23.2-11.28-45.104-30.144-58.592l-5.744-4.096a48.128 48.128 0 0 1-20.112-39.072v-59.408a8 8 0 0 1 16 0v59.408c0 10.32 5.008 20.064 13.392 26.048l5.744 4.096a88.176 88.176 0 0 1 36.864 71.632v38.832a8 8 0 0 1-8 7.984z" fill="#263238" p-id="4866"></path></svg>