<?xml version="1.0" standalone="no"?><!DOCTYPE svg PUBLIC "-//W3C//DTD SVG 1.1//EN" "http://www.w3.org/Graphics/SVG/1.1/DTD/svg11.dtd"><svg t="1672792694638" class="icon" viewBox="0 0 1024 1024" version="1.1" xmlns="http://www.w3.org/2000/svg" p-id="8577" xmlns:xlink="http://www.w3.org/1999/xlink" width="200" height="200"><path d="M363.70432 272.91392c-167.23584 0-302.81216 135.57632-302.81216 302.81216v351.75296l114.61248-114.61632c51.69024 41.07776 117.04704 65.6768 188.19968 65.6768 167.23456 0 302.81216-135.57632 302.81216-302.81216 0-167.23712-135.5776-302.81344-302.81216-302.81344M647.58912 64.73216c-119.99104 0-223.66592 69.64096-272.68096 170.6176 182.94656 5.92384 329.46048 155.98976 329.46048 340.37632 0 31.0784-4.24192 61.1392-12.03712 89.74976 53.6896-7.97568 102.83008-29.80224 143.45984-62.01728l114.6112 114.3488V366.85952c-0.00128-166.85824-135.57632-302.12736-302.81344-302.12736" fill="#FFFFFF" p-id="8578"></path><path d="M288 528.41088h246.03392v-18.9248H288v18.9248z m0 56.77952h246.03392v-18.9248H288v18.9248z m0 56.7744h170.33216V623.04H288v18.9248z" fill="#85AB70" p-id="8579"></path><path d="M685.85216 377.00608h132.064V358.08H673.2928c4.35328 6.19136 8.56576 12.47616 12.55936 18.92608m28.7488 56.77696h65.46432v-18.92608h-73.70624a389.6768 389.6768 0 0 1 8.24192 18.92608m-90.35136-132.48c6.432 6.10816 12.6976 12.38272 18.68672 18.92608h174.97984v-18.92608H624.2496z" fill="#86AEDD" p-id="8580"></path><path d="M250.14912 509.48608h-18.92608v18.9248h18.92608v-18.9248z m-37.85216 37.85088h18.92608v-18.92608h-18.92608v18.92608z m37.85216 0h-18.92608v18.92736h18.92608v-18.92736z m-37.85216 75.70304h18.92608v-18.9248h-18.92608v18.9248z m0-37.8496h18.92608v-18.9248h-18.92608v18.9248z m37.85216 0h-18.92608v18.9248h18.92608V585.1904z m-56.77696-56.77952h18.92608v-18.9248h-18.92608v18.9248z m0 37.85472h18.92608v-18.92736h-18.92608v18.92736z m0 37.8496h18.92608V585.1904h-18.92608v18.9248z m56.77696 18.9248h-18.92608v18.9248h18.92608V623.04z m-56.77696 18.9248h18.92608V623.04h-18.92608v18.9248z" fill="" p-id="8581"></path><path d="M647.58912 26.88c-141.69728 0-263.16288 86.53312-314.50624 209.61536C159.29472 252.00128 23.04 397.91872 23.04 575.72608v397.44128c0 10.44992 8.46976 18.9248 18.92608 18.9248 5.22112 0 9.952-2.11584 13.38112-5.53472l124.352-124.35712c53.06752 34.21952 116.15744 54.1888 184.00512 54.1888 141.73312 0 263.21664-86.57024 314.5472-209.70752 56.15872-5.05344 108.37504-23.66592 153.34272-52.6656l124.352 124.35712a18.88896 18.88896 0 0 0 13.38112 5.536c10.45504 0 18.9248-8.47488 18.9248-18.92608v-397.44C988.25216 179.39456 835.72864 26.88 647.58912 26.88M363.70432 878.53824c-71.15264 0-136.50944-24.59904-188.19968-65.6768l-114.61248 114.61632V575.72608c0-167.24608 135.57504-302.81216 302.81216-302.81216 167.23456 0 302.81216 135.56608 302.81216 302.81216 0 167.2448-135.5776 302.81216-302.81216 302.81216M950.40128 719.296l-114.6112-114.6176c-40.75008 32.38016-90.0224 54.46912-143.904 62.3872 8.07168-29.07264 12.48128-59.68896 12.48128-91.33952 0-184.32128-146.4128-334.3424-329.2608-340.37632 49.08416-100.99584 152.64384-170.6176 272.48128-170.6176 167.23712 0 302.81216 135.56736 302.81216 302.81216V719.296z" fill="" p-id="8582"></path></svg>