<?xml version="1.0" standalone="no"?><!DOCTYPE svg PUBLIC "-//W3C//DTD SVG 1.1//EN" "http://www.w3.org/Graphics/SVG/1.1/DTD/svg11.dtd"><svg t="1671332635034" class="icon" viewBox="0 0 1024 1024" version="1.1" xmlns="http://www.w3.org/2000/svg" p-id="9719" xmlns:xlink="http://www.w3.org/1999/xlink" width="200" height="200"><path d="M512 1023.960615a512 512 0 1 1 512-512 512.590769 512.590769 0 0 1-512 512z m0-945.230769a433.230769 433.230769 0 1 0 433.230769 433.230769 433.703385 433.703385 0 0 0-433.230769-433.230769z" fill="#231815" p-id="9720"></path><path d="M753.742769 570.013538a45.883077 45.883077 0 0 1-11.027692-3.623384 39.069538 39.069538 0 0 1-10.279385-5.395692 46.631385 46.631385 0 0 1-9.019077-7.24677 59.076923 59.076923 0 0 1-17.250461-41.629538 58.210462 58.210462 0 0 1 0.984615-11.815385 63.015385 63.015385 0 0 1 3.623385-11.067077 78.257231 78.257231 0 0 1 5.001846-10.24 60.061538 60.061538 0 0 1 7.640615-8.704 58.643692 58.643692 0 0 1 9.019077-7.443692 55.138462 55.138462 0 0 1 10.279385-5.395692 33.083077 33.083077 0 0 1 11.027692-3.229539 55.926154 55.926154 0 0 1 23.158154 0 41.590154 41.590154 0 0 1 11.027692 3.229539 56.635077 56.635077 0 0 1 9.846154 5.395692 49.427692 49.427692 0 0 1 9.019077 7.443692 56.792615 56.792615 0 0 1 7.443692 8.704c2.008615 3.623385 3.938462 6.616615 5.632 10.24s2.244923 7.601231 3.032616 11.067077a61.282462 61.282462 0 0 1 1.181538 11.815385 59.076923 59.076923 0 0 1-17.289846 41.629538 40.605538 40.605538 0 0 1-9.019077 7.24677 39.069538 39.069538 0 0 1-9.846154 5.395692 66.953846 66.953846 0 0 1-11.027692 3.623384 55.414154 55.414154 0 0 1-11.815385 1.220924 51.2 51.2 0 0 1-11.342769-1.220924z m-283.569231-16.226461a73.531077 73.531077 0 0 1-12.642461-19.298462 50.136615 50.136615 0 0 1-3.426462-10.830769 58.171077 58.171077 0 0 1 16.068923-53.326769 61.124923 61.124923 0 0 1 83.416616 0 58.564923 58.564923 0 0 1 17.289846 41.865846 60.809846 60.809846 0 0 1-0.984615 11.460923 49.703385 49.703385 0 0 1-3.229539 10.830769 46.946462 46.946462 0 0 1-5.632 10.24 40.802462 40.802462 0 0 1-7.443692 9.058462 57.462154 57.462154 0 0 1-41.629539 17.447385 59.076923 59.076923 0 0 1-41.865846-17.447385z m-252.061538 0a80.738462 80.738462 0 0 1-7.404308-9.058462 53.996308 53.996308 0 0 1-5.474461-10.24 93.538462 93.538462 0 0 1-3.190154-10.830769 58.171077 58.171077 0 0 1 16.068923-53.326769 61.361231 61.361231 0 0 1 83.613538 0 73.334154 73.334154 0 0 1 7.443693 8.704 63.015385 63.015385 0 0 1 5.041231 10.24 66.284308 66.284308 0 0 1 3.623384 11.067077 58.407385 58.407385 0 0 1 1.181539 11.815384 59.904 59.904 0 0 1-17.289847 41.629539 59.313231 59.313231 0 0 1-41.826461 17.447385 58.564923 58.564923 0 0 1-41.944615-17.447385z" fill="#38BDFE" p-id="9721"></path></svg>