<?xml version="1.0" standalone="no"?><!DOCTYPE svg PUBLIC "-//W3C//DTD SVG 1.1//EN" "http://www.w3.org/Graphics/SVG/1.1/DTD/svg11.dtd">
<svg t="1670985279017" class="icon" viewBox="0 0 1024 1024" version="1.1" xmlns="http://www.w3.org/2000/svg" p-id="3750"
     width="200" height="200"><path d="M705.008485 715.434667H315.888485a78.041212 78.041212 0 0 1-77.824-77.824v-90.794667h544.752485v90.794667a78.041212 78.041212 0 0 1-77.824 77.824M315.888485 222.549333h389.12a78.041212 78.041212 0 0 1 77.824 77.824v181.589334H238.064485V300.373333a78.041212 78.041212 0 0 1 77.824-77.824M705.008485 170.666667H315.888485C244.549818 170.666667 186.181818 229.034667 186.181818 300.373333v337.237334c0 63.550061 46.700606 116.736 107.659637 127.100121l-81.718303 47.988364c-12.970667 7.788606-16.86497 23.350303-9.076364 35.033212 7.773091 12.970667 23.334788 16.86497 35.017697 9.076363l155.648-89.491394h233.472l156.935757 90.779152c12.970667 7.788606 28.547879 2.606545 35.017697-9.076364a25.134545 25.134545 0 0 0-9.076363-35.017697l-81.718303-47.988363c59.671273-11.667394 106.356364-64.853333 106.356363-128.403394V300.373333c0-71.338667-58.368-129.706667-129.706666-129.706666" fill="#444444" p-id="3751"></path><path d="M705.008485 715.434667H315.888485a78.041212 78.041212 0 0 1-77.824-77.824v-90.794667h544.752485v90.794667a78.041212 78.041212 0 0 1-77.824 77.824" fill="#F8D02D" p-id="3752"></path><path d="M614.213818 624.64a38.912 38.912 0 1 0 77.808485 0 38.912 38.912 0 0 0-77.808485 0m-285.354666 0a38.912 38.912 0 1 0 77.824 0 38.912 38.912 0 0 0-77.824 0" fill="#444444" p-id="3753"></path></svg>
